<?xml version="1.0" encoding="iso-8859-1"?>
<!-- Generator: Adobe Illustrator 16.0.0, SVG Export Plug-In . SVG Version: 6.00 Build 0)  -->
<!DOCTYPE svg PUBLIC "-//W3C//DTD SVG 1.1//EN" "http://www.w3.org/Graphics/SVG/1.1/DTD/svg11.dtd">
<svg version="1.1" id="Capa_1" xmlns="http://www.w3.org/2000/svg" xmlns:xlink="http://www.w3.org/1999/xlink" x="0px" y="0px"
	 width="465.777px" height="465.777px" viewBox="0 0 465.777 465.777" style="enable-background:new 0 0 465.777 465.777;"
	 xml:space="preserve">
<g>
	<g id="Layer_8_40_">
		<path d="M166.196,351.835c2.134,3.386,4.375,6.701,6.738,9.931c-6.016,0.711-12.136,1.116-18.338,1.116
			C69.213,362.882,0,293.661,0,208.287C0,122.915,69.213,53.692,154.595,53.692c42.965,0,81.83,17.538,109.846,45.836
			c-3.57,0.979-7.083,2.077-10.562,3.284c-25.684-23.842-60.061-38.458-97.782-38.458c-79.366,0-143.938,64.567-143.938,143.933
			c0,79.372,64.567,143.936,143.938,143.936C159.482,352.223,162.843,352.063,166.196,351.835z M113.472,156.675
			c1.032-1.787,0.952-4.096-0.342-5.844l-26.9-36.23c-0.864-1.166-2.169-1.923-3.603-2.112c-1.434-0.186-2.893,0.227-4.02,1.135
			c-20.692,16.616-35.021,40.518-39.888,66.693c-0.264,1.417,0.056,2.884,0.896,4.061c0.829,1.171,2.111,1.967,3.537,2.186
			l44.586,6.843c2.801,0.431,5.475-1.411,6.028-4.203c2.505-12.259,9.051-23.176,18.508-31.116
			C112.772,157.685,113.168,157.197,113.472,156.675z M91.793,221.657c-0.113-0.635-0.329-1.216-0.633-1.743
			c-1.031-1.792-3.064-2.881-5.234-2.629L41.1,222.47c-1.434,0.162-2.745,0.911-3.62,2.062c-0.873,1.148-1.25,2.612-1.03,4.04
			c4.04,26.238,17.588,50.589,37.811,67.896c1.105,0.94,2.539,1.384,3.974,1.258c1.434-0.136,2.757-0.847,3.651-1.975l28.213-35.191
			c1.781-2.215,1.52-5.444-0.61-7.326C100.127,244.938,93.94,233.809,91.793,221.657z M114.917,322.564
			c12.688,4.925,26.191,7.43,39.729,7.518c-7.844-17.816-12.709-37.219-13.931-57.604c-1.388-0.378-2.756-0.815-4.113-1.297
			c-0.6-0.22-1.214-0.333-1.825-0.333c-2.068,0-4.018,1.22-4.891,3.217l-17.916,41.417c-0.583,1.33-0.588,2.835-0.033,4.164
			C112.493,320.995,113.575,322.038,114.917,322.564z M179.391,144.376c2.066,0,4.027-1.212,4.893-3.217l17.922-41.415
			c0.572-1.327,0.584-2.834,0.022-4.172c-0.558-1.34-1.63-2.388-2.984-2.914c-24.734-9.618-52.601-10.066-77.692-1.202
			c-1.365,0.482-2.47,1.497-3.075,2.808c-0.599,1.308-0.646,2.807-0.118,4.159l16.363,42.03c1.031,2.646,3.961,4.031,6.656,3.123
			c11.864-3.957,24.604-3.743,36.203,0.47C178.163,144.27,178.792,144.376,179.391,144.376z M157.829,180.231
			c-14.949,0-27.065,12.115-27.065,27.066c0,9.665,5.078,18.125,12.71,22.911c3.411-17.702,9.597-34.422,18.092-49.697
			C160.341,180.35,159.101,180.231,157.829,180.231z M465.756,254.963c1.4,85.363-66.661,155.713-152.047,157.101
			c-85.374,1.4-155.7-66.671-157.101-152.043c-1.401-85.37,66.668-155.71,152.042-157.103
			C394.016,101.522,464.354,169.602,465.756,254.963z M456.582,255.115c-1.308-79.349-66.914-142.856-146.271-141.557
			c-79.36,1.3-142.849,66.915-141.554,146.269c1.3,79.35,66.919,142.859,146.276,141.556
			C394.383,400.08,457.88,334.471,456.582,255.115z M241.292,164.94c-0.873-1.149-2.194-1.888-3.633-2.053
			c-1.434-0.161-2.88,0.277-3.988,1.202c-20.424,16.949-34.343,41.089-38.8,67.333c-0.229,1.423,0.112,2.889,0.967,4.049
			c0.85,1.162,2.155,1.932,3.579,2.123l44.677,6.123c2.815,0.378,5.453-1.516,5.962-4.307c2.307-12.298,8.676-23.324,17.99-31.409
			c0.48-0.416,0.874-0.908,1.171-1.436c1.014-1.809,0.897-4.113-0.438-5.838L241.292,164.94z M248.614,271.882
			c-0.118-0.618-0.351-1.204-0.656-1.729c-1.062-1.773-3.117-2.835-5.275-2.55l-44.727,5.921c-1.438,0.196-2.736,0.962-3.593,2.124
			c-0.861,1.158-1.214,2.63-0.963,4.063c4.465,26.156,18.405,50.294,38.914,67.263c1.116,0.919,2.55,1.346,3.978,1.198
			c1.434-0.165,2.747-0.898,3.631-2.035l27.639-35.644c1.751-2.234,1.42-5.473-0.747-7.312
			C257.32,295.029,250.956,284.008,248.614,271.882z M337.13,323.564c-1.073-2.631-4.039-3.961-6.698-3.009
			c-11.796,4.143-24.547,4.143-36.214,0.114c-0.591-0.207-1.226-0.306-1.816-0.284c-2.069,0.021-4.017,1.27-4.838,3.294
			l-17.242,41.696c-0.553,1.325-0.542,2.835,0.045,4.17c0.585,1.325,1.673,2.354,3.03,2.856c24.893,9.217,52.762,9.217,77.714-0.074
			c1.354-0.494,2.456-1.535,3.021-2.848c0.585-1.312,0.598-2.824,0.055-4.159L337.13,323.564z M427.909,275.97l-44.685-6.106
			c-2.812-0.378-5.454,1.504-5.953,4.306c-2.307,12.285-8.689,23.317-18.003,31.399c-0.492,0.415-0.875,0.907-1.169,1.438
			c-1.018,1.802-0.888,4.099,0.425,5.833l27.492,35.793c0.869,1.144,2.199,1.882,3.628,2.04c1.443,0.159,2.885-0.262,3.996-1.192
			c20.425-16.947,34.352-41.083,38.796-67.345c0.244-1.422-0.116-2.888-0.965-4.049C430.635,276.928,429.343,276.167,427.909,275.97
			z M433.94,233.852c-4.477-26.159-18.42-50.292-38.927-67.264c-1.116-0.919-2.55-1.352-3.985-1.188
			c-1.432,0.156-2.747,0.892-3.62,2.028l-27.65,35.642c-1.747,2.243-1.425,5.469,0.742,7.313c9.483,8.149,15.86,19.179,18.2,31.294
			c0.126,0.624,0.355,1.215,0.667,1.729c1.057,1.773,3.114,2.824,5.271,2.539l44.727-5.92c1.446-0.187,2.736-0.953,3.59-2.112
			C433.824,236.746,434.18,235.274,433.94,233.852z M353.939,141.153c-24.887-9.212-52.761-9.201-77.714,0.074
			c-1.344,0.504-2.44,1.535-3.021,2.857c-0.579,1.315-0.589,2.818-0.055,4.158l17.051,41.763c1.073,2.626,4.039,3.967,6.7,3.012
			c11.79-4.145,24.536-4.145,36.2-0.118c0.603,0.208,1.227,0.304,1.83,0.292c2.068-0.033,4.006-1.283,4.837-3.294l17.242-41.702
			c0.562-1.338,0.539-2.84-0.046-4.167C356.382,142.699,355.298,141.657,353.939,141.153z M314.85,283.516
			c14.937-0.241,26.856-12.554,26.613-27.502c-0.241-14.949-12.551-26.868-27.502-26.616c-14.949,0.241-26.868,12.554-26.627,27.502
			C287.586,271.849,299.898,283.756,314.85,283.516z"/>
	</g>
</g>
<g>
</g>
<g>
</g>
<g>
</g>
<g>
</g>
<g>
</g>
<g>
</g>
<g>
</g>
<g>
</g>
<g>
</g>
<g>
</g>
<g>
</g>
<g>
</g>
<g>
</g>
<g>
</g>
<g>
</g>
</svg>
